<?xml version="1.0" encoding="utf-8"?>
<!-- Generator: Adobe Illustrator 21.1.0, SVG Export Plug-In . SVG Version: 6.00 Build 0)  -->
<svg version="1.1" id="Layer_1" xmlns="http://www.w3.org/2000/svg" xmlns:xlink="http://www.w3.org/1999/xlink" x="0px" y="0px"
	 viewBox="0 0 362.2 451.1" style="enable-background:new 0 0 362.2 451.1;" xml:space="preserve">
<style type="text/css">
	.st0{stroke:#010101;stroke-width:0.9497;stroke-miterlimit:10;}
	.st1{fill:none;stroke:#010101;stroke-width:13.296;stroke-miterlimit:10;}
</style>
<g>
	<g>
		<path class="st0" d="M43.8,424.6c11.9-27.4,30.2-52.2,48.7-77.8c-10,4.6-19.3,8.9-28.5,13.2c-1.4,0.6-2.7,1.7-4.1,1.8
			c-2,0.1-4.1-0.4-6.1-0.7c0.8-1.4,1.3-3.2,2.6-4.1c3.5-2.2,7.4-4,11.2-5.9c12-6,21.9-13.8,29.6-23.6c13.3-16.7,27.2-33.1,40.5-49.8
			c13.7-17.1,27.4-34.1,40.4-51.5c16.7-22.4,32.3-45.4,54.2-64.8c5.7-5,12.2-9.4,18.9-13.5c6.4-4,9.8-2.4,10.6,3.9
			c1,8-1,15.3-7.8,21.4c-38.2,34.6-69.3,73.5-100.9,112.1c-4.5,5.5-8.5,11.3-12.6,16.8c4.7,5.8,10.9,6.4,17.5,4.8
			c18.5-4.4,34.1-11.5,40.1-28.4c2.5-7,8.4-11,17.7-11.5c6.1-0.3,9.1,1.9,10.7,6.2c5,13.7-1.6,30.4-15.3,39.4
			c-9.3,6.1-20.5,5.4-31,7c-8.9,1.4-18,2.1-26.5,4.6c-18,5.4-22,19.2-9.9,31.1c22.4,21.9,62.2,30.1,98.2,19.8
			c28.4-8.1,54.7-19.8,78.9-34.7c2.3-1.4,4.6-2.8,7.1-4c1.5-0.8,3.3-1.3,4.9-1.9c0.6,0.4,1.1,0.7,1.7,1.1c-1.9,2.3-3.3,5.4-5.9,6.8
			c-12.6,6.8-25.3,13.7-38.5,19.7c-19.4,8.7-38.8,17.6-59.1,24.7c-20,7.1-40.9,6.7-61,0c-7.6-2.5-15.1-5.2-22.7-7.5
			c-18.6-5.6-32.3-15.7-41.6-31.2c-4.4,6.5-8.3,12.2-12.2,17.9c-11.5,16.9-23.1,33.7-34.4,50.7c-2.6,3.9-3.9,8.4-5.9,12.6
			c-1.8,3.7-4.7,5-9,2.8C44.2,429.7,44,427.2,43.8,424.6z"/>
	</g>
	<g>
		<path class="st1" d="M29.7,447.1"/>
		<path class="st1" d="M48,98.1"/>
		<path class="st1" d="M122.2,129.4c0,0,3.4-109.6,50.9-115.2s69.9,71.4,68.7,115.2"/>
		<line class="st1" x1="106.4" y1="129.4" x2="137.5" y2="129.4"/>
		<polygon class="st1" points="343,430.1 19.2,430.1 58.1,104.9 306.9,104.9 		"/>
		<line class="st1" x1="226.3" y1="129.4" x2="257.4" y2="129.4"/>
	</g>
</g>
</svg>
