<?xml version="1.0" encoding="utf-8"?>
<!-- Generator: Adobe Illustrator 16.0.0, SVG Export Plug-In . SVG Version: 6.00 Build 0)  -->
<!DOCTYPE svg PUBLIC "-//W3C//DTD SVG 1.1//EN" "http://www.w3.org/Graphics/SVG/1.1/DTD/svg11.dtd">
<svg version="1.1" id="Layer_1" xmlns="http://www.w3.org/2000/svg" xmlns:xlink="http://www.w3.org/1999/xlink" x="0px" y="0px"
	 width="132px" height="49px" viewBox="0 0 132 49" enable-background="new 0 0 132 49" xml:space="preserve">
<path fill="#FFFFFF" stroke="#FFFFFF" stroke-width="0.2731" stroke-miterlimit="10" d="M126.852,21.808L126.852,21.808
	c-2.705,0-4.892,2.189-4.892,4.887c0,2.67,2.187,4.894,4.892,4.894c2.701,0,4.887-2.224,4.887-4.894
	C131.738,23.998,129.553,21.808,126.852,21.808 M126.852,31.08c-2.424,0-4.385-1.961-4.385-4.385c0-2.42,1.961-4.415,4.385-4.415
	c2.41,0,4.381,1.994,4.381,4.415C131.23,29.119,129.262,31.08,126.852,31.08 M18.896,0.875L7.533,16.196l12.055,15.137h-1.996
	L6.23,17.02H1.829v14.313H0.263V0.875h1.566v14.668h4.313L17.025,0.875H18.896z M26.334,10.931v10.354
	c0,7.227,3.742,10.49,10.969,10.49c7.221,0,11.221-3.264,11.221-10.49V10.931c0-7.229-4-10.447-11.221-10.447
	C30.076,0.483,26.334,3.702,26.334,10.931 M28.028,21.284V10.931c0-6.274,3.008-8.969,9.274-8.969c6.266,0,9.524,2.695,9.524,8.969
	v10.354c0,6.265-3.258,9.01-9.524,9.01C31.036,30.294,28.028,27.549,28.028,21.284 M76.209,0.875L64.853,16.196l12.054,15.137
	h-2.005L63.548,17.02h-4.399v14.313h-1.566V0.875h1.566v14.668h4.31L74.34,0.875H76.209z M102.449,0.875v1.563H86.217v12.278h13.621
	v1.566H86.217v13.492h16.232v1.567H84.648V0.875H102.449z M127.909,0.875v1.48h-10.054v28.986h-1.564V2.354h-10.145v-1.48
	L127.909,0.875L127.909,0.875z M126.458,23.552L126.458,23.552c-0.528,0-1.117,0.071-1.503,0.141v6.084h0.783v-2.654h0.75
	c0.721,0,1.087,0.328,1.248,1.182c0.156,0.782,0.326,1.312,0.416,1.473h0.826c-0.131-0.232-0.299-0.82-0.502-1.674
	c-0.154-0.651-0.414-1.076-0.875-1.238v-0.032c0.621-0.231,1.142-0.787,1.142-1.604c0-0.455-0.194-0.883-0.489-1.179
	C127.893,23.724,127.34,23.552,126.458,23.552 M125.738,26.506v-2.263c0.132-0.028,0.393-0.062,0.783-0.062
	c0.85,0,1.441,0.358,1.441,1.146c0,0.718-0.561,1.179-1.406,1.179H125.738z M26.191,48.404v-7.795h0.683v7.139h3.554v0.656H26.191z
	 M36.905,44.544c0-2.16-0.438-3.39-2.329-3.39c-1.898,0-2.314,1.222-2.314,3.39c0,2.183,0.389,3.315,2.314,3.315
	C36.515,47.859,36.905,46.807,36.905,44.544 M31.548,44.544c0-2.562,0.632-4.049,3.028-4.049c2.403,0,3.048,1.466,3.048,4.049
	c0,2.677-0.639,3.974-3.048,3.974C32.176,48.518,31.548,47.141,31.548,44.544 M44.456,40.607l-2.07,7.797h-1.688l-2.11-7.797h0.699
	l1.945,7.146h0.617l1.905-7.146H44.456z M45.866,40.607h4.658v0.646H46.55v2.856h3.303v0.649H46.55v2.994h3.974v0.649h-4.658V40.607
	z M59.741,44.803h-4.22v3.602h-0.682v-7.797h0.682v3.547h4.22v-3.547h0.682v7.797h-0.682V44.803z M63.317,45.62h3.081l-1.242-4.374
	h-0.583L63.317,45.62z M64.067,40.607h1.624l2.209,7.783h-0.699l-0.646-2.113h-3.403l-0.625,2.127h-0.696L64.067,40.607z
	 M72.134,45.037c1.216,0,1.714-0.762,1.714-1.992c0-1.218-0.498-1.789-1.714-1.789h-2.149v3.781H72.134z M69.982,45.697v2.707
	h-0.676v-7.797h2.826c1.669,0,2.424,0.769,2.424,2.438s-0.755,2.652-2.424,2.652H69.982z M78.952,45.037
	c1.208,0,1.71-0.762,1.71-1.992c0-1.218-0.502-1.789-1.71-1.789h-2.149v3.781H78.952z M76.803,45.697v2.707H76.12v-7.797h2.832
	c1.665,0,2.418,0.769,2.418,2.438s-0.753,2.652-2.418,2.652H76.803z M82.934,40.607h4.657v0.646h-3.975v2.856h3.302v0.649h-3.302
	v2.994h3.975v0.649h-4.657V40.607z M89.277,40.607h1.315l3.33,7.024h0.265v-7.024h0.695v7.797h-1.311l-3.357-7.024h-0.259v7.024
	h-0.681v-7.797H89.277z M101.102,41.322c0,0-1.486-0.178-2.135-0.178c-1.109,0-1.749,0.392-1.749,1.342
	c0,1.137,0.573,1.309,1.927,1.602c1.457,0.324,2.183,0.669,2.183,2.057c0,1.711-0.851,2.354-2.396,2.354
	c-0.854,0-2.384-0.214-2.384-0.214l0.068-0.642c0,0,1.51,0.196,2.303,0.196c1.108,0,1.706-0.462,1.706-1.657
	c0-0.975-0.486-1.199-1.747-1.455c-1.579-0.359-2.362-0.664-2.362-2.217c0-1.457,0.967-2.037,2.452-2.037
	c0.858,0,2.195,0.215,2.195,0.215L101.102,41.322z"/>
</svg>
